<svg width="1920" height="1347" fill="none" xmlns="http://www.w3.org/2000/svg"><path d="M297.208 633.738v549.352l-475.751-274.677 475.751-274.675z" stroke="#EBEBEB"/><circle cx="296.896" cy="1182.88" r="5" transform="rotate(-30 296.896 1182.88)" fill="#F2F2F2"/><circle cx="297.053" cy="633.154" r="5" transform="rotate(-30 297.053 633.154)" fill="#F2F2F2"/><path d="M425.594 75.381v256.396L203.549 203.579 425.594 75.381zM1668.56 747.777V491.381l222.05 128.198-222.05 128.198zm-355.94-137.152L836.874 885.299V335.95l475.746 274.675z" stroke="#EBEBEB"/><circle cx="836.739" cy="335.198" r="5" transform="rotate(30 836.739 335.198)" fill="#F2F2F2"/><circle cx="836.896" cy="884.926" r="5" transform="rotate(30 836.896 884.926)" fill="#F2F2F2"/><circle cx="1313.05" cy="610.198" r="5" transform="rotate(30 1313.05 610.198)" fill="#F2F2F2"/></svg>